<?xml version="1.0" encoding="UTF-8"?>
<svg version="1.1" xmlns="http://www.w3.org/2000/svg" width="3000" height="2100">
<path d="M0 0 C4.42804832 3.11867919 8.32472275 6.74287385 12.1796875 10.53515625 C12.85902344 11.20160156 13.53835938 11.86804688 14.23828125 12.5546875 C24.81700446 23.6868248 31.64774563 38.06563936 38.79980469 51.49072266 C43.12733888 59.61329692 47.59070184 67.64453812 52.14599609 75.64111328 C56.19490212 82.7610993 60.15594979 89.92673944 64.09436035 97.10812378 C69.9261049 107.73892986 75.88691902 118.27513679 82.03540039 128.72729492 C86.12971537 135.69894706 90.11920876 142.72271436 94.0546875 149.78515625 C99.00512172 158.66800305 104.00333256 167.52186596 109.0546875 176.34765625 C109.38738647 176.92911407 109.72008545 177.5105719 110.06286621 178.10964966 C112.43357801 182.25238045 114.80637206 186.39391664 117.1796875 190.53515625 C119.88946617 195.26349643 122.5981577 199.99245553 125.3046875 204.72265625 C125.63706421 205.30338898 125.96944092 205.8841217 126.31188965 206.48245239 C131.60963142 215.74254543 136.83219013 225.04307017 142.01855469 234.3659668 C145.5061321 240.61379523 149.0859474 246.79811645 152.73217773 252.95458984 C167.98817711 278.74162267 180.22493739 306.37463578 180.3828125 336.87109375 C180.38851257 337.74931793 180.39421265 338.62754211 180.40008545 339.53237915 C180.40948538 341.38632016 180.41604937 343.24027749 180.41992188 345.09423828 C180.42954071 347.86782844 180.46057601 350.64064839 180.4921875 353.4140625 C180.69083995 387.07006804 169.71051755 416.13799201 152.77001953 444.83789062 C151.29604671 447.33780646 149.84070123 449.84720605 148.39453125 452.36328125 C142.86219717 461.98552566 137.24722323 471.55996917 131.65039062 481.14477539 C125.41851873 491.82521131 119.24298638 502.53792638 113.07080078 513.25292969 C109.94288602 518.68175567 106.81110302 524.10834906 103.6796875 529.53515625 C102.42966871 531.70181208 101.17966872 533.86847875 99.9296875 536.03515625 C47.4296875 627.03515625 47.4296875 627.03515625 45.55395508 630.28637695 C44.3063401 632.44894208 43.05878134 634.61153964 41.8112793 636.77416992 C38.65025301 642.25385996 35.48819441 647.73294983 32.32421875 653.2109375 C26.56660528 663.18163508 20.81746857 673.15655366 15.1171875 683.16015625 C10.33211853 691.55447938 5.47555558 699.90555272 0.59912109 708.24707031 C-5.620208 718.8908087 -11.77599167 729.57087256 -17.92919922 740.25292969 C-21.05711398 745.68175567 -24.18889698 751.10834906 -27.3203125 756.53515625 C-28.57033129 758.70181208 -29.82033128 760.86847875 -31.0703125 763.03515625 C-63.5703125 819.36848958 -96.0703125 875.70182292 -128.5703125 932.03515625 C-129.1895459 933.10862305 -129.8087793 934.18208984 -130.44677734 935.28808594 C-131.69144329 937.4452474 -132.93655736 939.60215037 -134.18212891 941.75878906 C-137.39253908 947.31879244 -140.59406345 952.88368461 -143.78125 958.45703125 C-161.81999524 989.96336509 -161.81999524 989.96336509 -172.8203125 1002.53515625 C-173.25102051 1003.02757812 -173.68172852 1003.52 -174.12548828 1004.02734375 C-192.26852369 1024.63521677 -214.17844546 1039.91958398 -239.79785156 1049.7578125 C-241.65235027 1050.47059906 -243.49852239 1051.20495177 -245.34375 1051.94140625 C-254.90357174 1055.5959768 -264.75372189 1057.7910868 -274.8203125 1059.53515625 C-276.26095692 1059.79072863 -276.26095692 1059.79072863 -277.73070526 1060.05146408 C-282.99104191 1060.79058466 -288.26881555 1060.67978303 -293.57067871 1060.67559814 C-295.34012022 1060.68005483 -295.34012022 1060.68005483 -297.14530802 1060.68460155 C-300.40699825 1060.69175765 -303.66865629 1060.69445898 -306.93035316 1060.69519901 C-310.45339161 1060.69705629 -313.9764188 1060.70460708 -317.49945068 1060.71133423 C-325.19814334 1060.72489174 -332.89683077 1060.73093847 -340.59553337 1060.73534489 C-345.40807581 1060.73811215 -350.22061626 1060.74235042 -355.03315735 1060.74684906 C-368.37275822 1060.75903923 -381.71235749 1060.76933847 -395.05196381 1060.77272415 C-395.90505179 1060.77294372 -396.75813978 1060.77316328 -397.63707891 1060.7733895 C-398.49214524 1060.77360778 -399.34721156 1060.77382606 -400.22818899 1060.77405095 C-401.96071975 1060.77449441 -403.6932505 1060.77494097 -405.42578125 1060.77539062 C-406.71485893 1060.77572277 -406.71485893 1060.77572277 -408.02997857 1060.77606162 C-421.94185578 1060.78000606 -435.85368049 1060.7974504 -449.76553744 1060.82075015 C-464.06840052 1060.84451019 -478.37123731 1060.85692815 -492.67412043 1060.85809207 C-500.69660967 1060.85900631 -508.71903053 1060.864695 -516.74150085 1060.88291168 C-523.5755669 1060.89837573 -530.40954344 1060.90339626 -537.24362367 1060.89517358 C-540.72500616 1060.89128901 -544.20620876 1060.892088 -547.68756866 1060.90623093 C-571.58530911 1060.98685727 -593.44926781 1060.12823807 -611.7109375 1042.734375 C-622.0513223 1031.87697096 -624.34452032 1019.78825575 -624.08984375 1005.328125 C-623.30530938 986.01621256 -613.11469867 969.43699507 -603.51806641 953.24414062 C-598.7892274 945.2585426 -594.27202496 937.176742 -589.8203125 929.03515625 C-584.38039804 919.09725582 -578.79249397 909.26198999 -573.04345703 899.4987793 C-567.97970092 890.87342364 -563.12155175 882.14095935 -558.28271484 873.38793945 C-553.09093069 864.00133931 -547.7957362 854.67851949 -542.45263672 845.37744141 C-539.27810404 839.84978519 -536.11062682 834.31809451 -532.9453125 828.78515625 C-532.43597672 827.89517441 -532.43597672 827.89517441 -531.91635132 826.98721313 C-527.12610376 818.6139769 -522.39103511 810.21188125 -517.6953125 801.78515625 C-513.18260728 793.68791346 -508.57880976 785.65243297 -503.8828125 777.66015625 C-498.19906698 767.98421812 -492.7124099 758.20959686 -487.28320312 748.38891602 C-482.09135235 739.00193659 -476.79591719 729.67883456 -471.45263672 720.37744141 C-468.27810427 714.84978559 -465.11044594 709.31819769 -461.9453125 703.78515625 C-461.60641998 703.19283203 -461.26752747 702.60050781 -460.91836548 701.99023438 C-455.49895679 692.51412349 -450.14672009 683.00188611 -444.82421875 673.47094727 C-439.22550087 663.45239871 -433.52963407 653.49095485 -427.8203125 643.53515625 C-425.1935333 638.95283968 -422.5683772 634.36959975 -419.9453125 629.78515625 C-419.60584595 629.1920163 -419.26637939 628.59887634 -418.91662598 627.98776245 C-414.12629265 619.61434049 -409.3911342 611.21205908 -404.6953125 602.78515625 C-400.18260728 594.68791346 -395.57880976 586.65243297 -390.8828125 578.66015625 C-385.19906698 568.98421812 -379.7124099 559.20959686 -374.28320312 549.38891602 C-369.09135235 540.00193659 -363.79591719 530.67883456 -358.45263672 521.37744141 C-355.27810404 515.84978519 -352.11062682 510.31809451 -348.9453125 504.78515625 C-348.60575531 504.19183502 -348.26619812 503.59851379 -347.91635132 502.98721313 C-343.12610376 494.6139769 -338.39103511 486.21188125 -333.6953125 477.78515625 C-329.18260728 469.68791346 -324.57880976 461.65243297 -319.8828125 453.66015625 C-314.19906698 443.98421812 -308.7124099 434.20959686 -303.28320312 424.38891602 C-298.09135235 415.00193659 -292.79591719 405.67883456 -287.45263672 396.37744141 C-284.27810427 390.84978559 -281.11044594 385.31819769 -277.9453125 379.78515625 C-277.60641998 379.19283203 -277.26752747 378.60050781 -276.91836548 377.99023438 C-271.49895679 368.51412349 -266.14672009 359.00188611 -260.82421875 349.47094727 C-255.22550087 339.45239871 -249.52963407 329.49095485 -243.8203125 319.53515625 C-241.1935333 314.95283968 -238.5683772 310.36959975 -235.9453125 305.78515625 C-235.60584595 305.1920163 -235.26637939 304.59887634 -234.91662598 303.98776245 C-230.12629265 295.61434049 -225.3911342 287.21205908 -220.6953125 278.78515625 C-216.18260728 270.68791346 -211.57880976 262.65243297 -206.8828125 254.66015625 C-201.19906698 244.98421812 -195.7124099 235.20959686 -190.28320312 225.38891602 C-185.09135235 216.00193659 -179.79591719 206.67883456 -174.45263672 197.37744141 C-171.27810427 191.84978559 -168.11044594 186.31819769 -164.9453125 180.78515625 C-164.60641998 180.19283203 -164.26752747 179.60050781 -163.91836548 178.99023438 C-158.49895679 169.51412349 -153.14672009 160.00188611 -147.82421875 150.47094727 C-142.22550087 140.45239871 -136.52963407 130.49095485 -130.8203125 120.53515625 C-128.1935333 115.95283968 -125.5683772 111.36959975 -122.9453125 106.78515625 C-122.60584595 106.1920163 -122.26637939 105.59887634 -121.91662598 104.98776245 C-117.12629257 96.61434036 -112.39114196 88.21205495 -107.6953125 79.78515625 C-102.51097424 70.48297638 -97.1994754 61.26303531 -91.79736328 52.08569336 C-88.70076212 46.81219122 -85.69479962 41.50763389 -82.79736328 36.12231445 C-72.39305029 16.83521057 -58.6204884 -0.13388622 -37 -7.046875 C-24.2002264 -9.50131187 -11.10186918 -6.64892165 0 0 Z " fill="#FEFEFE" transform="translate(1522.8203125,470.46484375)"/>
<path d="M0 0 C16.97460815 12.28488153 26.2815477 30.14404088 36.09239197 48.19975281 C39.63559116 54.70695809 43.31156275 61.13680423 47 67.5625 C47.6680579 68.72830178 48.33602646 69.89415476 49.00390625 71.06005859 C50.3462749 73.40276336 51.68944685 75.74500498 53.03320312 78.08691406 C56.44485177 84.03364717 59.84768745 89.98542203 63.25 95.9375 C63.58474335 96.522966 63.91948669 97.10843201 64.26437378 97.7116394 C69.24882264 106.43069303 74.2014522 115.16730031 79.13623047 123.91455078 C83.35900824 131.39397615 87.61150743 138.85623274 91.875 146.3125 C92.37648056 147.18955093 92.37648056 147.18955093 92.88809204 148.08432007 C95.27878231 152.26499253 97.67052556 156.44506218 100.0625 160.625 C102.79238132 165.39542479 105.52181095 170.16610716 108.25 174.9375 C108.75184311 175.81515518 108.75184311 175.81515518 109.26382446 176.71054077 C114.24844339 185.42996748 119.20125162 194.16694476 124.13623047 202.91455078 C128.35900824 210.39397615 132.61150743 217.85623274 136.875 225.3125 C137.37648056 226.18955093 137.37648056 226.18955093 137.88809204 227.08432007 C140.27878231 231.26499253 142.67052556 235.44506218 145.0625 239.625 C147.79238132 244.39542479 150.52181095 249.16610716 153.25 253.9375 C153.75184311 254.81515518 153.75184311 254.81515518 154.26382446 255.71054077 C159.24844339 264.42996748 164.20125162 273.16694476 169.13623047 281.91455078 C173.02467669 288.80180484 176.93719969 295.67510756 180.86254883 302.54138184 C181.8729613 304.30893363 182.88279618 306.0768145 183.89257812 307.84472656 C187.01207911 313.30411138 190.1376552 318.75982087 193.28123474 324.2053833 C219.19199606 369.09366747 219.19199606 369.09366747 219.375 389.1875 C219.40400391 390.22197266 219.43300781 391.25644531 219.46289062 392.32226562 C219.56865324 405.31479571 214.62277169 415.74057844 205.9375 425.25 C197.81604238 432.92620227 187.78145187 437.02534616 177.0625 439.625 C176.41793736 439.79291225 175.77337471 439.9608245 175.10927987 440.133825 C167.10439621 442.00436823 159.12620472 441.90726315 150.95843506 441.88569641 C149.33048428 441.88872049 147.70253493 441.89261125 146.07458806 441.89728898 C141.62056382 441.90754484 137.16662029 441.90539331 132.7125895 441.90110838 C127.90126449 441.89863674 123.08995868 441.90766081 118.27864075 441.91514587 C108.85980606 441.92788316 99.4409999 441.92968774 90.02215806 441.92734561 C82.36376021 441.92556105 74.705371 441.92731506 67.04697418 441.93157005 C65.41066818 441.93246284 65.41066818 441.93246284 63.74130549 441.93337366 C61.52502606 441.93458544 59.30874664 441.93579957 57.09246722 441.93701603 C36.31615 441.94788803 15.53984901 441.94573081 -5.23646912 441.93963119 C-24.22828394 441.9344635 -43.22004744 441.94571418 -62.2118521 441.96472941 C-81.7275553 441.98411888 -101.24323424 441.99236178 -120.75894713 441.98860615 C-131.70949603 441.98669565 -142.66000127 441.98916694 -153.6105423 442.00332069 C-162.93394478 442.01524965 -172.25727674 442.01662245 -181.58068022 442.00453053 C-186.33380539 441.99865223 -191.08680164 441.99751329 -195.83991814 442.00953293 C-200.1986968 442.02042687 -204.55723946 442.01724687 -208.91600725 442.00327124 C-210.48526054 442.00063393 -212.05453253 442.00296021 -213.62376741 442.01100711 C-233.56623982 442.10609893 -251.92912201 437.72184727 -267.0625 424.125 C-276.66274096 414.1407494 -280.38160352 400.83624575 -280.29882812 387.33203125 C-279.74966667 365.2898267 -266.71881068 346.16614768 -255.83154297 327.83251953 C-252.65630465 322.45532425 -249.54941105 317.03900558 -246.4375 311.625 C-241.05930668 302.28582591 -235.64490192 292.96859064 -230.20703125 283.6640625 C-225.92527878 276.33216277 -221.67539061 268.98232762 -217.4375 261.625 C-212.0583592 252.28636793 -206.64490553 242.96859683 -201.20703125 233.6640625 C-196.92527878 226.33216277 -192.67539061 218.98232762 -188.4375 211.625 C-183.0583592 202.28636793 -177.64490553 192.96859683 -172.20703125 183.6640625 C-167.92527878 176.33216277 -163.67539061 168.98232762 -159.4375 161.625 C-154.0583592 152.28636793 -148.64490553 142.96859683 -143.20703125 133.6640625 C-138.92527878 126.33216277 -134.67539061 118.98232762 -130.4375 111.625 C-125.05704491 102.28408621 -119.64310871 92.96354121 -114.20263672 83.6574707 C-110.58963029 77.47221033 -107.00212569 71.27292393 -103.43212891 65.06274414 C-100.9290834 60.71134105 -98.41726907 56.36505416 -95.90234375 52.02050781 C-94.55393559 49.69028159 -93.20750553 47.3590009 -91.86328125 45.02636719 C-90.11291033 41.99143965 -88.35148904 38.96314349 -86.58319092 35.93862915 C-85.60056711 34.25280911 -84.62747806 32.56144252 -83.65478516 30.86987305 C-73.33970265 13.29697863 -59.86796353 -2.04894844 -39.9375 -8.375 C-25.43062995 -11.88893906 -12.08144993 -8.30632422 0 0 Z " fill="#FEFEFE" transform="translate(1878.9375,1089.375)"/>
</svg>
